<svg xmlns="http://www.w3.org/2000/svg" viewBox="0 0 1024 1024" width="1024" height="1024"><defs>
<linearGradient id="shell" x1="0" y1="0" x2="0" y2="1"><stop offset="0" stop-color="#FFFFFF"/><stop offset="1" stop-color="#DCE0F2"/></linearGradient>
<radialGradient id="lens" cx="0.38" cy="0.35" r="0.7"><stop offset="0" stop-color="#3A3A4A"/><stop offset="1" stop-color="#0E0E16"/></radialGradient>
<filter id="blur"><feGaussianBlur stdDeviation="28"/></filter>
<clipPath id="sq"><rect x="64" y="64" width="896" height="896" rx="200"/></clipPath>
<radialGradient id="neb" cx="0.3" cy="0.25" r="0.9"><stop offset="0" stop-color="#5B3FD1"/><stop offset="0.45" stop-color="#1E1A5C"/><stop offset="1" stop-color="#05061A"/></radialGradient>
<radialGradient id="neb2" cx="0.8" cy="0.85" r="0.5"><stop offset="0" stop-color="#E0479E" stop-opacity="0.55"/><stop offset="1" stop-color="#E0479E" stop-opacity="0"/></radialGradient></defs><g clip-path="url(#sq)"><rect x="0" y="0" width="1024" height="1024" fill="url(#neb)"/><rect x="0" y="0" width="1024" height="1024" fill="url(#neb2)"/><circle cx="354" cy="199" r="2.7" fill="#fff" opacity="0.40"/><circle cx="544" cy="392" r="0.8" fill="#fff" opacity="0.68"/><circle cx="98" cy="453" r="0.8" fill="#fff" opacity="0.41"/><circle cx="444" cy="805" r="1.0" fill="#fff" opacity="0.50"/><circle cx="626" cy="913" r="2.4" fill="#fff" opacity="0.61"/><circle cx="939" cy="106" r="3.3" fill="#fff" opacity="0.54"/><circle cx="193" cy="170" r="1.6" fill="#fff" opacity="0.88"/><circle cx="226" cy="585" r="2.6" fill="#fff" opacity="0.59"/><circle cx="555" cy="120" r="0.8" fill="#fff" opacity="0.48"/><circle cx="674" cy="447" r="1.6" fill="#fff" opacity="0.73"/><circle cx="470" cy="333" r="3.1" fill="#fff" opacity="0.80"/><circle cx="283" cy="579" r="2.3" fill="#fff" opacity="0.92"/><circle cx="718" cy="322" r="3.7" fill="#fff" opacity="0.43"/><circle cx="439" cy="742" r="1.1" fill="#fff" opacity="0.67"/><circle cx="99" cy="663" r="3.0" fill="#fff" opacity="0.72"/><circle cx="848" cy="345" r="2.8" fill="#fff" opacity="0.74"/><circle cx="584" cy="473" r="3.3" fill="#fff" opacity="0.96"/><circle cx="489" cy="659" r="0.8" fill="#fff" opacity="0.81"/><circle cx="644" cy="954" r="3.2" fill="#fff" opacity="0.53"/><circle cx="410" cy="663" r="0.7" fill="#fff" opacity="0.65"/><circle cx="215" cy="169" r="0.8" fill="#fff" opacity="0.85"/><circle cx="180" cy="286" r="1.9" fill="#fff" opacity="0.92"/><circle cx="136" cy="466" r="2.4" fill="#fff" opacity="0.92"/><circle cx="798" cy="838" r="1.5" fill="#fff" opacity="0.62"/><circle cx="385" cy="856" r="3.7" fill="#fff" opacity="0.45"/><circle cx="222" cy="272" r="1.3" fill="#fff" opacity="0.67"/><circle cx="592" cy="299" r="0.6" fill="#fff" opacity="0.62"/><circle cx="395" cy="571" r="3.6" fill="#fff" opacity="0.80"/><circle cx="526" cy="617" r="2.8" fill="#fff" opacity="0.39"/><circle cx="870" cy="763" r="3.4" fill="#fff" opacity="0.87"/><circle cx="416" cy="421" r="0.9" fill="#fff" opacity="0.76"/><circle cx="120" cy="124" r="1.3" fill="#fff" opacity="0.46"/><circle cx="369" cy="111" r="0.6" fill="#fff" opacity="0.45"/><circle cx="155" cy="390" r="0.7" fill="#fff" opacity="0.92"/><circle cx="614" cy="197" r="1.4" fill="#fff" opacity="0.58"/><circle cx="390" cy="174" r="3.3" fill="#fff" opacity="1.00"/><circle cx="482" cy="498" r="0.9" fill="#fff" opacity="0.42"/><circle cx="371" cy="301" r="3.3" fill="#fff" opacity="0.45"/><circle cx="85" cy="916" r="2.3" fill="#fff" opacity="0.45"/><circle cx="551" cy="88" r="2.3" fill="#fff" opacity="0.99"/><circle cx="838" cy="688" r="1.4" fill="#fff" opacity="0.59"/><circle cx="214" cy="756" r="2.3" fill="#fff" opacity="0.86"/><circle cx="359" cy="264" r="3.2" fill="#fff" opacity="0.99"/><circle cx="828" cy="786" r="3.2" fill="#fff" opacity="0.83"/><circle cx="267" cy="528" r="1.7" fill="#fff" opacity="0.37"/><circle cx="89" cy="314" r="1.4" fill="#fff" opacity="0.80"/><circle cx="921" cy="465" r="3.6" fill="#fff" opacity="0.99"/><circle cx="920" cy="391" r="1.3" fill="#fff" opacity="0.50"/><circle cx="240" cy="247" r="2.6" fill="#fff" opacity="0.94"/><circle cx="817" cy="494" r="2.7" fill="#fff" opacity="0.87"/><circle cx="140" cy="656" r="3.5" fill="#fff" opacity="0.86"/><circle cx="736" cy="492" r="1.2" fill="#fff" opacity="0.86"/><circle cx="362" cy="782" r="3.7" fill="#fff" opacity="0.61"/><circle cx="424" cy="912" r="2.9" fill="#fff" opacity="0.46"/><circle cx="178" cy="199" r="3.5" fill="#fff" opacity="0.87"/><circle cx="195" cy="805" r="3.7" fill="#fff" opacity="0.78"/><circle cx="378" cy="556" r="1.0" fill="#fff" opacity="0.36"/><circle cx="934" cy="646" r="2.3" fill="#fff" opacity="0.96"/><circle cx="453" cy="845" r="3.2" fill="#fff" opacity="0.49"/><circle cx="290" cy="326" r="1.4" fill="#fff" opacity="0.73"/><circle cx="296" cy="439" r="1.0" fill="#fff" opacity="0.94"/><circle cx="381" cy="475" r="2.5" fill="#fff" opacity="0.94"/><circle cx="441" cy="886" r="2.2" fill="#fff" opacity="0.70"/><circle cx="533" cy="81" r="2.0" fill="#fff" opacity="0.47"/><circle cx="68" cy="780" r="1.2" fill="#fff" opacity="0.66"/><circle cx="714" cy="563" r="1.6" fill="#fff" opacity="0.69"/><circle cx="562" cy="767" r="0.9" fill="#fff" opacity="0.71"/><circle cx="287" cy="312" r="3.1" fill="#fff" opacity="0.68"/><circle cx="567" cy="745" r="3.5" fill="#fff" opacity="0.64"/><circle cx="613" cy="517" r="2.2" fill="#fff" opacity="0.80"/><circle cx="469" cy="542" r="2.1" fill="#fff" opacity="0.96"/><circle cx="690" cy="849" r="3.6" fill="#fff" opacity="0.52"/><circle cx="565" cy="909" r="3.3" fill="#fff" opacity="0.44"/><circle cx="173" cy="460" r="0.8" fill="#fff" opacity="0.51"/><circle cx="130" cy="664" r="3.1" fill="#fff" opacity="0.93"/><circle cx="202" cy="706" r="2.7" fill="#fff" opacity="0.44"/><circle cx="855" cy="931" r="1.3" fill="#fff" opacity="0.97"/><circle cx="421" cy="501" r="3.8" fill="#fff" opacity="0.89"/><circle cx="209" cy="451" r="2.2" fill="#fff" opacity="0.57"/><circle cx="239" cy="349" r="2.9" fill="#fff" opacity="0.36"/><circle cx="560" cy="459" r="0.7" fill="#fff" opacity="0.57"/><circle cx="623" cy="523" r="0.8" fill="#fff" opacity="0.99"/><circle cx="770" cy="935" r="0.9" fill="#fff" opacity="0.52"/><circle cx="99" cy="762" r="1.5" fill="#fff" opacity="0.43"/><circle cx="442" cy="881" r="3.2" fill="#fff" opacity="0.52"/><circle cx="198" cy="888" r="2.4" fill="#fff" opacity="0.81"/><circle cx="144" cy="116" r="2.8" fill="#fff" opacity="0.63"/><circle cx="129" cy="905" r="2.6" fill="#fff" opacity="0.87"/><circle cx="139" cy="831" r="0.8" fill="#fff" opacity="0.91"/><circle cx="471" cy="368" r="2.4" fill="#fff" opacity="0.95"/><circle cx="304" cy="180" r="2.3" fill="#fff" opacity="0.50"/><circle cx="162" cy="209" r="0.8" fill="#fff" opacity="0.48"/><circle cx="344" cy="337" r="3.0" fill="#fff" opacity="0.54"/><circle cx="512" cy="223" r="1.7" fill="#fff" opacity="0.36"/><circle cx="288" cy="78" r="2.9" fill="#fff" opacity="0.71"/><circle cx="234" cy="489" r="3.6" fill="#fff" opacity="0.42"/><circle cx="798" cy="451" r="2.2" fill="#fff" opacity="0.89"/><circle cx="416" cy="518" r="2.8" fill="#fff" opacity="0.99"/><circle cx="371" cy="810" r="2.9" fill="#fff" opacity="0.76"/><circle cx="427" cy="375" r="0.8" fill="#fff" opacity="0.43"/><circle cx="127" cy="728" r="1.4" fill="#fff" opacity="0.46"/><circle cx="140" cy="818" r="3.4" fill="#fff" opacity="0.79"/><circle cx="317" cy="281" r="1.5" fill="#fff" opacity="0.65"/><circle cx="205" cy="463" r="1.4" fill="#fff" opacity="0.98"/><circle cx="935" cy="554" r="1.4" fill="#fff" opacity="0.98"/><circle cx="341" cy="383" r="0.6" fill="#fff" opacity="0.60"/><circle cx="489" cy="514" r="1.2" fill="#fff" opacity="0.68"/><circle cx="68" cy="301" r="0.9" fill="#fff" opacity="0.61"/><circle cx="101" cy="84" r="1.6" fill="#fff" opacity="0.50"/><circle cx="589" cy="538" r="3.0" fill="#fff" opacity="0.78"/><circle cx="706" cy="852" r="1.8" fill="#fff" opacity="0.56"/><circle cx="946" cy="198" r="2.9" fill="#fff" opacity="0.77"/><circle cx="103" cy="812" r="3.5" fill="#fff" opacity="0.76"/><circle cx="722" cy="792" r="1.0" fill="#fff" opacity="0.69"/><circle cx="516" cy="812" r="3.2" fill="#fff" opacity="0.89"/><circle cx="587" cy="864" r="2.8" fill="#fff" opacity="0.80"/><circle cx="270" cy="92" r="1.0" fill="#fff" opacity="0.58"/><circle cx="158" cy="813" r="2.4" fill="#fff" opacity="0.76"/><circle cx="625" cy="674" r="2.2" fill="#fff" opacity="0.35"/><circle cx="779" cy="734" r="2.2" fill="#fff" opacity="0.70"/><circle cx="655" cy="123" r="3.0" fill="#fff" opacity="0.51"/><circle cx="131" cy="302" r="2.9" fill="#fff" opacity="0.48"/><circle cx="727" cy="938" r="2.2" fill="#fff" opacity="0.60"/><circle cx="493" cy="677" r="3.1" fill="#fff" opacity="0.75"/><circle cx="640" cy="133" r="1.1" fill="#fff" opacity="0.52"/><circle cx="730" cy="337" r="2.4" fill="#fff" opacity="0.36"/><circle cx="118" cy="305" r="2.8" fill="#fff" opacity="0.80"/><circle cx="669" cy="325" r="2.3" fill="#fff" opacity="0.65"/><circle cx="482" cy="170" r="3.5" fill="#fff" opacity="0.48"/><circle cx="940" cy="903" r="0.7" fill="#fff" opacity="0.65"/><circle cx="799" cy="931" r="2.0" fill="#fff" opacity="0.52"/><circle cx="252" cy="911" r="1.3" fill="#fff" opacity="0.73"/><circle cx="191" cy="534" r="3.6" fill="#fff" opacity="0.44"/><circle cx="799" cy="520" r="3.4" fill="#fff" opacity="0.81"/><circle cx="271" cy="868" r="2.2" fill="#fff" opacity="0.37"/><circle cx="67" cy="505" r="2.0" fill="#fff" opacity="0.55"/><circle cx="190" cy="372" r="1.6" fill="#fff" opacity="0.90"/><circle cx="66" cy="737" r="3.3" fill="#fff" opacity="0.43"/><circle cx="894" cy="703" r="3.5" fill="#fff" opacity="0.54"/><circle cx="398" cy="416" r="3.8" fill="#fff" opacity="0.73"/><g transform="translate(0,30) scale(1)">
  <path d="M372 400 L330 190" stroke="#C9D3FF" stroke-width="14" stroke-linecap="round"/>
  <path d="M652 400 L700 180" stroke="#C9D3FF" stroke-width="14" stroke-linecap="round"/>
  <circle cx="330" cy="186" r="22" fill="#FFD23F"/><circle cx="700" cy="176" r="22" fill="#FFD23F"/>
  <path d="M320 700 Q300 860 512 880 Q724 860 704 700 Z" fill="url(#shell)"/>
  <rect x="236" y="380" width="552" height="340" rx="120" fill="url(#shell)"/>
  <rect x="440" y="538" width="144" height="16" rx="8" fill="#0E0E16"/>
  <circle cx="380" cy="546" r="92" fill="url(#lens)"/><circle cx="644" cy="546" r="92" fill="url(#lens)"/>
  <circle cx="352" cy="512" r="20" fill="#fff" opacity="0.85"/><circle cx="616" cy="512" r="20" fill="#fff" opacity="0.85"/>
  <ellipse cx="512" cy="372" rx="92" ry="46" fill="#FFD23F"/><circle cx="512" cy="300" r="56" fill="#FFD23F"/>
  <path d="M556 300 Q610 296 606 318 Q580 330 552 320 Z" fill="#FF7A1A"/>
  <rect x="470" y="282" width="76" height="22" rx="10" fill="#0E0E16"/></g></g></svg>